<?xml version="1.0" encoding="utf-8"?>
<!-- Svg Vector Icons : http://www.onlinewebfonts.com/icon -->
<!DOCTYPE svg PUBLIC "-//W3C//DTD SVG 1.1//EN" "http://www.w3.org/Graphics/SVG/1.1/DTD/svg11.dtd">
<svg version="1.1" xmlns="http://www.w3.org/2000/svg" xmlns:xlink="http://www.w3.org/1999/xlink" x="0px" y="0px" viewBox="0 0 1000 1000" enable-background="new 0 0 1000 1000" xml:space="preserve">
<metadata> Svg Vector Icons : http://www.onlinewebfonts.com/icon </metadata>
<g><g transform="translate(0.000000,490.000000) scale(0.100000,-0.100000)"><path d="M4462.9,4063.2c-1259.7-222.1-2069.5-1231-2194-2731.9l-13.4-158.9H4999h2741.5l-13.4,158.9c-109.1,1332.5-762,2284-1809.2,2634.3C5512,4101.5,4910.9,4141.7,4462.9,4063.2z"/><path d="M1616.1,776.1c-23-3.8-65.1-34.5-91.9-65.1l-47.9-59.3v-2285.9v-2285.9h-201h-201v1964.2V8.4L938.4,0.7C814-5,796.7-10.8,746.9-68.2l-55.5-61.3v-1895.3v-1895.3H459.8H228.1l-67-67c-61.3-61.3-67-74.7-57.4-149.3c7.7-53.6,26.8-93.8,61.3-122.5l49.8-44h1608.1h1606.2v1673.2c0,1041.5,7.7,1692.4,19.1,1723c9.6,26.8,45.9,67,80.4,88.1c61.3,36.4,97.6,38.3,1470.3,38.3c1372.7,0,1409-1.9,1470.3-38.3c34.5-21.1,70.8-61.3,80.4-88.1c11.5-30.6,19.1-681.5,19.1-1723V-4303h1600.5c1060.6,0,1612,5.7,1636.9,19.1c46,24.9,93.8,116.8,93.8,183.8c0,30.6-23,72.8-65.1,114.9l-65.1,65.1h-231.7h-231.6v1895.3v1895.3L9251-68.2c-49.8,57.4-67,63.2-191.4,68.9l-135.9,7.7v-1964.3v-1964.2h-201h-201v2287.8V655.5l-53.6,59.3c-47.9,53.6-67,61.3-191.4,70.8l-137.8,9.6v-2358.6v-2356.7h-201h-201v2354.8V789.5H4999H2261.3v-2354.8v-2354.8h-201h-201v2354.8V789.5l-99.6-1.9C1704.2,785.6,1639.1,779.9,1616.1,776.1z"/><path d="M3831.2-2742.7V-4303H4999h1167.8v1560.3v1560.3H4999H3831.2V-2742.7z"/></g></g>
</svg>