<?xml version="1.0" encoding="utf-8"?>
<!-- Svg Vector Icons : http://www.onlinewebfonts.com/icon -->
<!DOCTYPE svg PUBLIC "-//W3C//DTD SVG 1.1//EN" "http://www.w3.org/Graphics/SVG/1.1/DTD/svg11.dtd">
<svg version="1.1" xmlns="http://www.w3.org/2000/svg" xmlns:xlink="http://www.w3.org/1999/xlink" x="0px" y="0px" viewBox="0 0 1000 1000" enable-background="new 0 0 1000 1000" xml:space="preserve">
<metadata> Svg Vector Icons : http://www.onlinewebfonts.com/icon </metadata>
<g><g transform="translate(0.000000,511.000000) scale(0.100000,-0.100000)"><path d="M4607.2,5012.3c-219.2-22.7-518.9-107.5-638.9-177.8c-155.1-91-266.7-208.8-345.3-365.9c-109.6-225.4-130.2-388.7-132.3-1040c0-628.5,22.7-905.6,95.1-1164c64.1-223.3,244-589.2,382.5-771.2l107.5-140.6l-14.5-221.2c-24.8-399-18.6-380.4-175.7-485.9c-74.4-49.6-163.3-97.2-198.5-105.4c-33.1-8.3-97.2-22.7-138.5-35.2l-76.5-20.7l49.6-93c66.2-124,99.2-299.8,82.7-432.1c-18.6-148.9-111.6-334.9-219.2-436.3c-99.2-95.1-649.2-425.9-787.7-475.5c-99.2-35.1-306-47.5-392.8-22.7l-57.9,14.5v-516.9v-516.9h-217.1h-217.1v535.5v535.5l212.9,126.1l213,124l111.6-33.1c159.2-45.5,256.4-16.5,583,171.6c301.9,173.7,392.8,246,454.9,368c49.6,97.2,55.8,281.2,10.3,386.6c-35.2,82.7-136.5,192.3-225.4,237.8c-88.9,45.5-246,60-339.1,28.9c-93-31-618.2-334.9-686.4-399c-62-57.9-119.9-169.5-138.5-266.7c-14.5-74.4-26.9-84.8-674-463.1c-361.8-210.9-659.5-394.9-659.5-405.2c0-24.8,204.7-384.5,225.4-396.9c6.2-4.2,86.8,35.1,177.8,88.9c91,53.8,208.8,124.1,264.6,155.1l97.2,57.9v-425.9v-425.9H720.3H100v-765v-765h754.6h754.6v-640.9v-640.9l3396.9,4.1l3394.9,6.2l6.2,636.8l4.1,634.7h744.3H9900v765v765H8889H7875.9l-6.2,760.8l-6.2,760.9l-78.6,157.1c-179.9,363.9-649.2,655.4-1327.3,822.9c-167.5,41.3-237.8,74.4-461.1,219.2c-4.1,2.1-20.7,142.7-37.2,310.1c-31,301.9-31,306,12.4,357.7c113.7,142.7,285.3,421.8,355.6,583c159.2,372.2,202.6,676.1,202.6,1459.7c0,494.1-20.7,709.2-84.8,909.7c-146.8,452.8-545.8,655.4-1331.5,678.1C4931.8,5028.9,4704.4,5024.7,4607.2,5012.3z M4377.7-59.3c175.7-165.4,324.6-301.9,332.9-301.9c6.2,0,35.2,39.3,62,86.8l49.6,86.8l35.2-80.6c49.6-115.8,47.5-194.3-39.3-824.9c-57.9-407.3-82.7-547.9-99.2-527.2c-62,78.5-506.5,903.5-609.9,1135.1c-115.8,252.2-349.4,913.8-349.4,988.3c0,22.7,53.8-18.6,150.9-111.6C3991.1,310.8,4201.9,108.2,4377.7-59.3z M6188.8,267.4C6040-224.7,5860.1-623.7,5490-1277c-175.7-310.1-198.5-341.1-208.8-289.5c-6.2,31-45.5,310.1-84.8,618.2l-72.4,558.2l43.4,99.2l43.4,99.2l51.7-84.8c26.9-45.5,55.8-84.8,59.9-84.8c6.2,0,217.1,198.5,469.3,442.4c252.2,244,461.1,440.4,465.2,438.3C6259.1,515.5,6228.1,401.8,6188.8,267.4z"/></g></g>
</svg>