<?xml version="1.0" encoding="utf-8"?>
<!-- Svg Vector Icons : http://www.onlinewebfonts.com/icon -->
<!DOCTYPE svg PUBLIC "-//W3C//DTD SVG 1.1//EN" "http://www.w3.org/Graphics/SVG/1.1/DTD/svg11.dtd">
<svg version="1.1" xmlns="http://www.w3.org/2000/svg" xmlns:xlink="http://www.w3.org/1999/xlink" x="0px" y="0px" viewBox="0 0 1000 1000" enable-background="new 0 0 1000 1000" xml:space="preserve">
<metadata> Svg Vector Icons : http://www.onlinewebfonts.com/icon </metadata>
<g><g transform="translate(0.000000,511.000000) scale(0.100000,-0.100000)"><path d="M6278.5,2719c-977.4-319.9-1043.4-350.3-1002.8-459.5c10.1-25.4,43.1-55.9,76.2-68.5c58.4-20.3,60.9-33,60.9-274.2c0-142.2-10.1-261.5-25.4-269.1c-45.7-27.9-30.5-253.9,20.3-299.6c63.5-58.4,139.6-53.3,195.5,5.1c35.5,40.6,40.6,76.2,25.4,172.6c-27.9,203.1-43.2,591.5-22.8,591.5c10.1,0,101.5-22.8,198-48.2c99-27.9,228.5-63.5,289.4-78.7l106.6-27.9v-132c0-76.2,15.2-157.4,35.6-185.3c33-48.2,30.5-68.5-25.4-208.2C5951,794.7,6334.3-223.3,6951.2-525.4c307.2-152.3,622-106.6,916.5,132c233.6,190.4,439.2,530.6,545.8,901.2c86.3,299.6,81.2,698.1-10.2,921.5c-60.9,144.7-63.5,167.6-30.5,215.8c20.3,27.9,35.6,109.2,35.6,185.3c0,104.1,10.2,134.5,45.7,144.7c22.9,5.1,223.4,60.9,444.3,119.3c434.1,116.8,487.4,149.8,416.3,258.9c-27.9,45.7-241.2,121.9-997.7,368.1c-530.6,170.1-990.1,309.7-1025.6,307.2C7255.8,3028.7,6801.4,2889.1,6278.5,2719z M8202.8,1426.8c203.1-426.5,43.1-1150-347.8-1571.4c-177.7-193-345.3-276.7-550.9-276.7c-205.6,0-373.2,83.8-550.9,276.7c-390.9,421.4-548.3,1122.1-350.3,1568.9l48.2,109.2h850.5h847.9L8202.8,1426.8z"/><path d="M1592.1,2620C1033.6,2439.8,569,2277.3,556.3,2259.5c-38.1-58.4-5.1-154.9,66-187.9c66-33,68.5-40.6,68.5-228.5c-2.5-132-12.7-210.7-38.1-243.7c-20.3-27.9-38.1-104.1-38.1-170.1c0-99,12.7-129.5,66-172.6c38.1-30.5,88.9-53.3,111.7-53.3c149.8,0,225.9,233.6,129.5,393.5c-38.1,66-53.3,134.5-53.3,243.7c0,81.2,7.6,149.8,20.3,149.8c10.2-2.5,154.9-40.6,322.4-86.3l304.6-81.2l7.6-116.8c7.6-106.6,2.5-119.3-104.1-205.6c-142.2-114.2-261.5-294.5-309.7-462c-22.8-68.5-50.8-251.3-63.5-406.2C1031,446.9,990.4,246.3,929.5,35.6c-114.2-398.6-124.4-614.4-38.1-792.1c30.5-68.5,66-121.9,76.2-121.9c10.2,0,45.7,30.5,81.2,66c96.5,104.1,454.4,378.2,573.7,439.2c172.6,86.3,266.6,73.6,439.2-68.5c195.5-157.4,411.3-264,561-279.3c152.3-15.2,363,78.7,611.8,269.1c203.1,157.4,294.5,170.1,474.7,63.5c134.6-76.2,500.1-355.4,571.2-436.6c27.9-27.9,58.4-53.3,68.5-53.3s43.1,53.3,76.2,119.3c83.8,175.2,73.6,398.6-40.6,794.6c-55.9,200.5-99,418.9-114.2,594c-15.2,149.8-38.1,325-53.3,388.4c-38.1,149.8-192.9,383.3-324.9,487.4c-101.5,81.2-106.6,91.4-99,200.6l7.6,116.8l457,121.9c248.8,68.5,469.7,137.1,487.4,152.3c53.3,43.2,38.1,142.2-22.9,182.8c-71.1,43.2-2010.6,675.3-2071.5,675.3C2627.8,2952.6,2150.6,2802.8,1592.1,2620z M2665.9,1015.6C2869,914,3087.3,865.8,3364.1,863.2l251.3-2.5l-17.8-121.8c-22.8-177.7-142.2-492.5-251.3-662.6C3001-464.5,2539-553.3,2150.6-154.8C1929.7,73.7,1749.5,444.4,1713.9,749c-15.2,121.9-12.7,124.4,50.8,124.4c126.9,0,347.8,104.1,482.3,228.5l132,121.9l76.2-71.1C2498.4,1114.6,2592.3,1051.1,2665.9,1015.6z"/><path d="M6374.9-472.1c-246.3-73.6-868.2-662.6-1150-1084c-213.3-322.4-401.1-695.6-474.7-952c-99-335.1-391-299.6,2553.9-299.6c2472.7,0,2518.4,0,2564.1,50.8c38.1,43.2,40.6,63.5,15.2,170.1c-78.7,312.2-355.4,845.4-624.5,1205.9c-284.3,378.3-817.5,847.9-1033.2,908.8c-66,20.3-91.4,10.2-205.6-78.7c-464.6-368.1-967.2-368.1-1434.3,0c-71.1,58.4-134.6,104.1-137.1,101.5C6443.4-449.2,6410.4-459.4,6374.9-472.1z"/><path d="M1566.7-588.9c-264-175.2-731.1-657.5-936.8-967.3c-213.2-322.4-401.1-695.6-474.7-952c-99-332.6-335.1-299.6,2170.6-299.6h2137.6l-10.2,104.1c-12.7,119.3,73.6,378.3,238.6,728.6l114.2,236.1l-159.9,233.5c-208.2,304.6-573.7,682.9-847.9,875.8c-276.7,198-322.4,200.6-507.7,33c-76.2-66-203.1-154.9-284.3-195.5c-121.9-60.9-175.2-73.6-347.8-73.6c-172.6,0-225.9,10.2-347.8,71.1c-81.2,40.6-208.2,129.5-284.3,198C1851-436.6,1797.7-436.6,1566.7-588.9z"/></g></g>
</svg>